<svg xmlns="http://www.w3.org/2000/svg" viewBox="0 0 47.793 33.824">
  <defs>
    <style>
      .cls-1 {
        fill: #fff;
      }
    </style>
  </defs>
  <g id="Group_23" data-name="Group 23" transform="translate(447.14 -1255.927)">
    <g id="sports-car" transform="translate(-447.14 1255.927)">
      <g id="Group_19" data-name="Group 19">
        <path id="Path_15" data-name="Path 15" class="cls-1" d="M47.518,16.173a1.229,1.229,0,0,0-.948-.452H41.918c-1.148-3.027-2.643-5.994-4.343-7.113C31.7,4.74,16.1,4.74,10.219,8.608c-1.7,1.121-3.19,4.091-4.344,7.113H1.224a1.225,1.225,0,0,0-1.2,1.472l.689,3.338a1.223,1.223,0,0,0,1.2.975H3.291a8.263,8.263,0,0,0-1.984,5.4,8.09,8.09,0,0,0,2.556,6.074c.018.016.037.027.054.043V37.7a1.837,1.837,0,0,0,1.836,1.836h4.29A1.837,1.837,0,0,0,11.879,37.7V35.819H35.913V37.7a1.837,1.837,0,0,0,1.836,1.836h4.29A1.839,1.839,0,0,0,43.875,37.7V33.117a8.4,8.4,0,0,0,.536-11.612h1.47a1.219,1.219,0,0,0,1.2-.977l.69-3.337A1.233,1.233,0,0,0,47.518,16.173Zm-35.283-4.5c4.687-3.085,18.636-3.085,23.32,0,.91.6,2.082,3.012,3.155,5.968H9.082C10.153,14.687,11.324,12.273,12.235,11.674ZM6.745,27.368a3.611,3.611,0,1,1,3.611,3.611A3.611,3.611,0,0,1,6.745,27.368Zm30.738,3.611a3.611,3.611,0,1,1,3.611-3.611A3.612,3.612,0,0,1,37.483,30.979Z" transform="translate(0 -5.707)"/>
      </g>
    </g>
  </g>
</svg>
