<svg xmlns="http://www.w3.org/2000/svg" viewBox="0 0 38.126 37.818">
  <defs>
    <style>
      .cls-1 {
        fill: #fff;
      }
    </style>
  </defs>
  <g id="Group_22" data-name="Group 22" transform="translate(441.941 -1163.915)">
    <g id="hotel-building" transform="translate(-441.941 1163.915)">
      <g id="Group_18" data-name="Group 18">
        <path id="Path_13" data-name="Path 13" class="cls-1" d="M38.126,40.061V25.393a1.459,1.459,0,0,0-.924-1.357L23.287,18.589V5.156A1.458,1.458,0,0,0,21.83,3.7H1.456A1.458,1.458,0,0,0,0,5.156v34.9a1.458,1.458,0,0,0,1.456,1.456H8.231V38.572a3.416,3.416,0,0,1,3.416-3.416h0a3.416,3.416,0,0,1,3.416,3.416v2.946H36.678A1.454,1.454,0,0,0,38.126,40.061ZM8.93,32.184H4.482V28.368a2.222,2.222,0,1,1,4.444,0v3.816Zm0-9.155H4.482V19.213a2.222,2.222,0,1,1,4.444,0v3.816h0Zm0-9.159H4.482V10.054a2.222,2.222,0,1,1,4.444,0V13.87ZM18.8,32.184H14.356V28.368a2.222,2.222,0,1,1,4.444,0v3.816Zm0-9.155H14.356V19.213a2.222,2.222,0,1,1,4.444,0v3.816h0Zm0-9.159H14.356V10.054a2.222,2.222,0,1,1,4.444,0V13.87ZM34.772,34.29H26.645V23.774l8.127,3.183Z" transform="translate(0 -3.7)"/>
        <path id="Path_14" data-name="Path 14" class="cls-1" d="M600.1,3.7V14.814h11.115a1.458,1.458,0,0,0,1.456-1.456v-8.2A1.458,1.458,0,0,0,611.215,3.7H600.1Zm9.3,8.576a.835.835,0,0,1-.832.832h-.2a.835.835,0,0,1-.832-.832V9.983h-2.414v2.293a.835.835,0,0,1-.832.832h-.2a.835.835,0,0,1-.832-.832v-5.9a.835.835,0,0,1,.832-.832h.2a.835.835,0,0,1,.832.832V8.355h2.414V6.375a.835.835,0,0,1,.832-.832h.2a.835.835,0,0,1,.832.832v5.9Z" transform="translate(-575.128 -3.699)"/>
      </g>
    </g>
  </g>
</svg>
