<svg xmlns="http://www.w3.org/2000/svg" viewBox="0 0 35.618 54.208">
  <defs>
    <style>
      .cls-1 {
        fill: #fff;
      }
    </style>
  </defs>
  <g id="Group_20" data-name="Group 20" transform="translate(440.135 -975.86)">
    <g id="bag-for-travel" transform="translate(-440.135 975.86)">
      <path id="Path_18" data-name="Path 18" class="cls-1" d="M13.231,8.455V53.049A5.29,5.29,0,0,1,8.4,47.789V13.717A5.289,5.289,0,0,1,13.231,8.455ZM14.15,53.1h.481V8.407H14.15ZM35.059,8.407h1.179V53.1h-.85v1.107H32.957V53.1H19.463v1.107H17.029V53.1h-.85V8.407h1.182V1.328A1.327,1.327,0,0,1,18.687,0H33.731a1.328,1.328,0,0,1,1.326,1.328V8.407ZM30.691,20.174a2.084,2.084,0,1,0-2.085-2.084A2.084,2.084,0,0,0,30.691,20.174Zm-3.07-1.955-4.17,1.641,2.328,5.915,4.17-1.641Zm-7.6-9.813H32.4V2.654H20.017Zm-.5,15.2,2.544.566.568-2.542-2.544-.568Zm1.3,5.367c0,1.7.955,3.072,2.134,3.072s2.135-1.376,2.135-3.072S24.131,25.9,22.95,25.9,20.816,27.28,20.816,28.977Zm6.722,5.42H21.6v1.979h5.94ZM32.9,28.4h-5.94v1.979H32.9Zm4.89,24.7h.481V8.407h-.481Zm1.4-44.645V53.049a5.291,5.291,0,0,0,4.829-5.26V13.717A5.289,5.289,0,0,0,39.191,8.455Z" transform="translate(-8.402)"/>
    </g>
  </g>
</svg>
