<svg xmlns="http://www.w3.org/2000/svg" viewBox="0 0 50 49.996">
  <defs>
    <style>
      .cls-1 {
        fill: #f4b200;
      }
    </style>
  </defs>
  <g id="icon" transform="translate(111 171.558)">
    <path id="Path_17" data-name="Path 17" class="cls-1" d="M20.669,36.162a.024.024,0,0,0,0-.008C20.71,36.177,20.734,36.188,20.669,36.162Zm-.076-.074c-.067-.012.019.035.076.065A.107.107,0,0,0,20.593,36.087Zm5.658-13.245.026.027C26.291,22.842,26.251,22.842,26.251,22.842Zm7.814,11.982a3.781,3.781,0,0,0,.589,0h.054A1.245,1.245,0,0,0,35.3,34.6l.021-.011h0c-.224-.028-.446-.057-.668-.084s-.44-.061-.659-.092c.155.12.261.221.217.237C34.092,34.7,33.87,34.8,34.066,34.824ZM32.972,23.778l-.039-.019c-.084.357-.171.71-.257,1.062.06.037.017.049.266.06a3.436,3.436,0,0,0,.37.017c.264,0,.311.029.358-.08s.063.063.063-.234a.569.569,0,0,0-.234-.5A2.33,2.33,0,0,0,32.972,23.778Zm-1.544,5.66-.08.266.12-.021s.03.083.078.2c.024-.064.048-.114.048-.114a1.172,1.172,0,0,0-.043-.254C31.543,29.488,31.488,29.461,31.428,29.438Zm.783-2.669h-.037l-.035.141c-.154.576-.318,1.157-.485,1.742.133.006.256.016.256.016a.366.366,0,0,0,.192-.254,2.026,2.026,0,0,1,.149-.4l.107.021a.661.661,0,0,0,.09-.318c0-.266-.118-.323-.118-.468a4.52,4.52,0,0,1,.06-.5ZM36,34.672h0a5.519,5.519,0,0,1-.328.748,7.307,7.307,0,0,1-.89,1.086c-.027.027-.073.064-.128.107-.374.305-1.236.952-1.431,1.1-.221.172-1.258,1.061-1.382,1.162a2.244,2.244,0,0,0-.322.418l-.172.249.076.2a1.075,1.075,0,0,0-.2.347.24.24,0,0,1-.04.077,16.249,16.249,0,0,1-4.173,1.093q-.41.854-.837,1.679a18,18,0,0,0,13.785-7.956c-.6-.026-1.205-.064-1.81-.11Q37.075,34.792,36,34.672ZM49.941,31.68c-.8,2.971-9.449,3.328-20.43,1.134-3.592,10.606-8.225,17.921-11.2,17.125-1.871-.5-2.705-4.129-2.515-9.491l.191.106A17.971,17.971,0,0,1,7.056,26.166c.521.272,1.053.535,1.592.794,1.924.922,3.941,1.758,5.986,2.513h0l.005.11-.3.519-.273.174.074.123.05.249h-.148v.541c0,.2.4.274.4.274l-.124.076a1.057,1.057,0,0,0,.149.318,2.3,2.3,0,0,1,.273.545c.048.172.122.667.122.667s.321.543.469.766a8.89,8.89,0,0,1,.569.767c.123.247.4.124.914.247a2.074,2.074,0,0,1,.742.3,4.016,4.016,0,0,0,.445.321c.172.1.346.1.816.1.447,0,.155.021.705.107l.086.013c.659.1.137.053.765.335l.024.012c.152.068.235.106.278.123a2.107,2.107,0,0,1,.044.418c.024.126.2-.021.321-.021.095,0,.117.071.226.14a.475.475,0,0,0,.12.055c.223.074.271-.074.271-.074l.248.3.2.273-.2.467-.172.173a1.9,1.9,0,0,0,0-.395c-.026-.174-.172.073-.172.073l-.149.47.544.52.165.148.357.321.021.063.2.578-.024.2.123.32a2.756,2.756,0,0,1-.3.1.6.6,0,0,1-.145.022c-.071,0-.16.084-.233.174a1.963,1.963,0,0,0-.139.2,2.216,2.216,0,0,0,.139.224.876.876,0,0,0,.183.194c.034.023.065.044.1.064.027,0,.053.01.079.015a.122.122,0,0,1-.016.028h0l-.073.126h0c-.212.369-.485.828-.8,1.309A18.138,18.138,0,0,1,16.4,40.78s.005,0,.007.007c.049,3.241.655,5.339,1.84,5.657,2.251.6,5.893-5.384,8.9-14.138-1.262-.286-2.551-.6-3.852-.954C9.523,27.67-.882,21.828.059,18.317c.5-1.872,4.126-2.705,9.49-2.515-.062.106-.121.212-.182.318a17.96,17.96,0,0,1,15.72-9.1c-.109,0-.219,0-.329,0,2.516-4.74,5.053-7.463,6.925-6.961C35.2,1,35.052,12.934,31.362,26.709c-.351,1.3-.719,2.576-1.1,3.813,9.087,1.769,16.094,1.611,16.7-.639.317-1.184-1.2-2.76-3.983-4.424v-.024a18.1,18.1,0,0,1-.982,5.442c-.573.028-1.1.033-1.53.033h0c-.348,0-.62-.005-.782-.011-.463-.019-.934-.043-1.4-.074.083-.29.154-.5.172-.622a2.556,2.556,0,0,1,.106-.384l-.551-.127-.063-.361-.235-.039-.211.4a1.347,1.347,0,0,1-.361.36,1.293,1.293,0,0,1-.446.128l.063-.3a.613.613,0,0,0-.318.041l-.021-.274s-.129-.276-.234-.3S35.9,29.1,35.9,29.1a1.092,1.092,0,0,1-.129-.254c0-.005-.008-.011-.018-.019l.032-.143s.2-.226.364-.42.227.195.395.338a.382.382,0,0,1,.112.365.624.624,0,0,0,.252.056.224.224,0,0,1,.2.111l.28.112.284-.312a.27.27,0,0,1,.249-.2c.2,0,.028.254.028.4s.142,0,.536-.168a3.912,3.912,0,0,0,.589-.339c.365-.2.169-.14.31-.252a2.684,2.684,0,0,0,.253-.226l.308.195.338-.057.339-.195v.252s-.228.281-.086.481.17.141.086.395-.026.252,0,.394a.873.873,0,0,1,.028.182,16.392,16.392,0,0,0-5.788-17.87c.049-.63.084-1.252.109-1.872a17.973,17.973,0,0,1,7.99,14.97c0-.086,0-.171,0-.256C47.719,27.274,50.444,29.81,49.941,31.68ZM28.4,12.132s.177-.1.264-.139,0-.051-.088-.113-.2.051-.2.051a.582.582,0,0,0-.1.165.093.093,0,0,1-.017.023c-.046.059-.1-.094-.11-.176s-.342-.026-.33-.026a.86.86,0,0,1,.079.164,2.1,2.1,0,0,1,.023.215.457.457,0,0,0,.052.251,1.4,1.4,0,0,0,.192.192l.1-.064.039-.026.151-.252.126-.113ZM26.374,11.01s.021-.178.118-.158.2-.239.2-.239-.079-.158-.177-.158-.319.02-.319.02l-.059-.119a.59.59,0,0,0-.277.04.137.137,0,0,1-.2-.08l-.02-.239-.219.059L25.262,10s-.06-.12.039-.12a1.964,1.964,0,0,1,.24.021l.2-.139L25.659,9.6l.138-.159s-.277-.139-.338-.039a.685.685,0,0,1-.277.178s.019-.059-.1-.218.058-.239-.2-.178a.965.965,0,0,0-.353.167.807.807,0,0,0-.085.07s-.277.059-.3.159.337.159.337.159.018-.023.045-.053c.054-.057.147-.134.214-.067a1.566,1.566,0,0,1,.178.219l-.378.2-.014-.013-.184-.147h-.378l-.179.081L23.433,10a1.22,1.22,0,0,1,.059.278c0,.1-.159.2-.159.2l-.212-.018h-.027l-.217.158a.831.831,0,0,0-.338.1.144.144,0,0,1-.053.027c-.09.023-.186-.039-.186.093,0,.159.02.238-.1.258l-.091.017c-.126.026-.285.061-.285.061a.914.914,0,0,0-.218.16.89.89,0,0,1-.318.157l-.032-.006-.365-.073-.516.219-.013.031-.106.248-.339.04s-.277.139-.3.241a.248.248,0,0,1-.111.129.751.751,0,0,1-.087.049,1.552,1.552,0,0,0-.3.16,1.625,1.625,0,0,0-.219.239l-.079.177.139.2-.318.04.04.157c.158.157.259.238.357.157s.041-.137.16-.178l.306-.106c.079-.028.149-.055.191-.071.1-.04.259-.178.378-.178a1.5,1.5,0,0,0,.239-.022l.046-.037.27-.22.318.139.257-.042a.18.18,0,0,0,.049.115.154.154,0,0,0,.071.043,1.154,1.154,0,0,0,.3.04.339.339,0,0,1,.239-.138h.356l.04-.179.227.105.033.014.178.14s-.081.018.119.1a.464.464,0,0,0,.3.009A.386.386,0,0,0,23.194,13l.338.082s.019-.316-.08-.316a.978.978,0,0,1-.3-.1l.219-.08.238-.04.059.258.377-.119-.059-.217.02-.34.358.061.021.237a1.407,1.407,0,0,0,.144.049c.084.021.172.026.172-.049,0-.139-.08-.237.02-.237a1.447,1.447,0,0,0,.3-.061l.1-.138.14-.318.159.238.219-.137-.04-.2.478-.218s.277-.039.4-.039a.233.233,0,0,0,.159-.04s.079-.16-.04-.16A.374.374,0,0,1,26.374,11.01Zm-4.745,7.679-.2.1.457.218.226.012.171.008a1.106,1.106,0,0,0,.139-.4.208.208,0,0,1,.066-.161c.042-.034.106-.053.192-.117.158-.12.118-.158.08-.277-.03-.088-.189-.081-.27-.068-.028,0-.048.009-.048.009l-.33.165-.028.014-.159-.2-.219.059-.217.217c-.02-.019.139.022.139.022a.508.508,0,0,1,.219,0c.159.02-.04.157-.04.157l-.318.081Zm.757-4.643-.27.021h-.007a1.089,1.089,0,0,0,.007.449c0,.009.008.019.012.028a.47.47,0,0,0,.363.253.791.791,0,0,0,.271-.015c.178-.04.234-.05.243-.05l-.024.01s.036-.011.024-.01l.12-.048.153-.061s.257-.159.257-.3-.219-.1-.4-.1h-.013c-.165,0-.148-.027-.224-.217s-.08.117-.08.117-.08-.019-.16-.2a1.3,1.3,0,0,1-.1-.317l-.07.037-.226.12.059.119Zm-.2,5.7s.08.1.2.258c.053.069.084.048.107,0s.055-.16.11-.16c.1,0,.02.16.139.137a3.387,3.387,0,0,1,.378-.019l.006.006.171.192s.2-.1.219-.2.02-.1.179-.1.1-.019.3-.178-.059-.3-.218-.378-.019-.217-.019-.217l.019-.279a1.9,1.9,0,0,0-.019-.238c-.02-.139-.059-.24-.08-.378a.12.12,0,0,0-.16-.1v-.18a1.725,1.725,0,0,0,.4-.04c.1-.04,0-.239,0-.239s-.237-.1-.417-.158-.059-.1.239-.118.04-.158.04-.158l-.237-.139a.807.807,0,0,1-.318.239.259.259,0,0,0-.092.057c-.07.066-.023.146-.086.241v.159l.086.148L23.18,18a1.089,1.089,0,0,1-.053.169.786.786,0,0,1-.066.131c-.08.118.04.256.04.256a1.951,1.951,0,0,1-.04.4c-.04.137-.338-.12-.338-.12l-.059.338h-.278l.041.179.066.053.11.086.118.18-.231-.084-.106-.038ZM19.07,10.792l-.338.357a1.719,1.719,0,0,0,.4.039,2.053,2.053,0,0,0,.385-.234c.118-.083.239-.165.329-.223.219-.137.3-.1.3-.1l.08.158-.476.277.555-.08.065-.062.211-.2.219-.257.337.02.128-.049.289-.109A1.228,1.228,0,0,0,21.885,10c.078-.139.13-.061.226-.04a.2.2,0,0,0,.091,0c.158-.04.081-.179.081-.317,0-.068.1-.073.206-.072a.691.691,0,0,0,.31-.028c.118-.08-.1-.238-.258-.277l-.053-.012c-.124-.028-.189-.043-.206-.166-.01-.072-.085-.1-.171-.091a.472.472,0,0,0-.226.072c-.119.08-.357.1-.277-.059a.162.162,0,0,1,.043-.05,16.47,16.47,0,0,0-1.84.5c.137,0,.195.008.288.008.118,0-.119.139-.119.139a2.443,2.443,0,0,0-.456.2l-.012.011a.222.222,0,0,0-.047.208h.047A1.5,1.5,0,0,0,19.76,10a1.378,1.378,0,0,0,.437-.219,1.231,1.231,0,0,1,.165-.091.872.872,0,0,0,.171-.067c.139-.081.04.219.04.219L20.95,9.7l.306-.015.109-.005.119-.219-.23-.051-.128-.028.119-.119h.008a5,5,0,0,1,.508.02c.119.02,0,.16,0,.16l-.039.16-.139.255s-.18.021-.318.021h-.011a.575.575,0,0,0-.287.157l-.279.2H20.3l-.059.219-.318-.04a1.139,1.139,0,0,1-.059-.239c-.02-.139-.16,0-.16,0a.685.685,0,0,1-.19.337.225.225,0,0,1-.087.041A.742.742,0,0,0,19.07,10.792Zm4.322-2.1c-.169.017-.338.029-.507.053.022.005.039.014.094.026.119.02.02.059.02.157,0,.066.027.087.126.107.05.009.118.02.212.032.278.039.1-.08.06-.317C23.394,8.725,23.391,8.706,23.391,8.692Zm-1.112.147a.131.131,0,0,1,.047.087s.018-.043.039-.1ZM24.6,8.616a.281.281,0,0,0-.034.152c.02.18.06,0,.179-.04a.14.14,0,0,0,.106-.118C24.769,8.609,24.686,8.614,24.6,8.616ZM12.967,13.872l.25.016.317-.2.317.1-.178.08a2.271,2.271,0,0,0-.218.378c-.04.118.476.1.476.1a2.458,2.458,0,0,0,.139-.535c0-.158.417-.258.417-.258l.118-.315.2.137a.748.748,0,0,0,.1-.318c-.02-.1-.378-.12-.378-.12l.358-.177.358.1-.08.694h.357l.081.119a3.357,3.357,0,0,1-.6.279c-.1,0-.317.255-.317.255l-.2.219a.421.421,0,0,0,.237.158c.16.04.16.139.16.139s.217-.082.217-.2a.175.175,0,0,0-.08-.16s.179-.2.3-.337.755-.416.873-.555.04-.239.04-.239l.3-.18s.08-.377.118-.474a5.587,5.587,0,0,1,.755-.517,1.468,1.468,0,0,1,.733-.337c.4-.1.119-.139.1-.258s-.338.158-.338.158l-.477-.136a.7.7,0,0,0,.4-.158c.2-.159.16-.04.3-.1s.1-.118.1-.118h.219a2.312,2.312,0,0,0,.277-.337c.1-.159.317-.456.317-.456s-.495.279-.595.317-.258-.039-.377-.039-.3.2-.5.277-.416.2-.416.2l-.3-.059-.239.1-.574.239a3.031,3.031,0,0,1,.338-.218l.477-.278.378-.1.035-.192c-.152.082-.305.159-.455.247A16.164,16.164,0,0,0,12.967,13.872ZM27.9,30.023c.4-1.27.784-2.585,1.147-3.94,3.21-11.986,3.584-22.3.831-23.039-1.186-.318-2.759,1.2-4.423,3.981h-.05a18.017,18.017,0,0,1,5.466.981c.028.576.033,1.1.033,1.528h0c0,.35-.005.626-.013.786-.055,1.507-.192,3.05-.39,4.6a.934.934,0,0,0-.233-.052c-.212-.014-.217,0-.213,0a1.29,1.29,0,0,1-.248-.259.734.734,0,0,0-.441-.281c-.249-.083-.231.1-.231.1a.841.841,0,0,1-.527.134c-.283-.032-.357.287-.361.308v0l-.211.181s-.116.2-.248.2a.807.807,0,0,0-.232.033,2.057,2.057,0,0,0-.064.378.149.149,0,0,1-.133.147,1.589,1.589,0,0,0-.277.083,3.36,3.36,0,0,0-.344.18c-.116.065-.067.114-.3.248s-.312.181-.312.181l-.31.065.163.165-.245.049a.751.751,0,0,0,.016.262c.033.115.278.132.278.132a1.669,1.669,0,0,1-.358.214c-.2.084-.2.114-.183.2s.133.26.461.345.1-.017.246-.1a1.865,1.865,0,0,1,.31-.131,1.516,1.516,0,0,1,.2.474c0,.148-.05.426-.031.524s.181-.033.181-.033l-.149.165s.034.3.034.378.295.033.295-.049.163-.213.411-.23.211-.049.211-.247a2.861,2.861,0,0,1,.053-.461l.277-.082a2.881,2.881,0,0,0,.26-.22.455.455,0,0,0,.066-.077c.035-.053-.005-.107-.066-.156-.046-.043-.109-.084-.147-.123a.927.927,0,0,1-.113-.508.737.737,0,0,1,.016-.213c.015-.105.138-.113.246-.138a.089.089,0,0,0,.032-.01c.114-.031.263-.231.475-.327s-.112-.115-.112-.115.03-.182.065-.329.459.048.459.048l.164.2-.2.148-.231.345-.329.427.263.688a.906.906,0,0,0,.378.1.852.852,0,0,0,.41-.18,1.935,1.935,0,0,1,.482-.14l-.079.457c-.068.029-.159-.031-.346-.031-.255,0-.324.116-.559.139s-.093.187-.093.3.326.256.326.256l-.256.163s-.116-.256-.349-.234-.141.326-.278.441.091.467.091.467a.971.971,0,0,0-.32.107c-.017.011-.032.021-.051.032-.161.116-.208.024-.208.024s-.092-.14-.208-.14-.278.188-.4.233a1.894,1.894,0,0,1-.511,0l-.254-.279-.211.209a.639.639,0,0,1-.3-.186c-.115-.14,0-.116-.022-.233s-.069-.117-.069-.117l.116-.187.3-.187a.992.992,0,0,0-.069-.6c-.139-.188-.139.185-.139.185l-.462.306.024.629-.094.278-.187-.046-.116.14a2.1,2.1,0,0,0-.3-.14c-.187-.07-.511.233-.511.233l-.044.106-.074.18-.255-.046-.14.161h-.278c-.115,0-.048.209-.048.209a.492.492,0,0,1-.171.129l-.042-.055a.258.258,0,0,0-.254.067.419.419,0,0,1-.147.063A1.039,1.039,0,0,1,23,20.6l-.118-.305s-.085-.151-.168-.033a.226.226,0,0,0-.052.2l.035.2-.169.018-.037-.011-.082-.024-.3-.177-.043-.027s-.2-.035-.169.1.2.3.2.389a.033.033,0,0,0,.009.023c.052.056.3.04.3.146s-.153.254-.153.254a.364.364,0,0,1,.118.253,1.845,1.845,0,0,1-.068.473c-.033.1-.117.067-.152.168a.371.371,0,0,1-.041.084,1.489,1.489,0,0,1-.128.17.875.875,0,0,1-.338.034c-.085-.034-.153-.153-.305-.187a.227.227,0,0,0-.082-.007c-.061.009-.07.04-.223-.063a1.8,1.8,0,0,0-.406-.237.422.422,0,0,1-.2-.168s-.024-.016-.061-.036a.583.583,0,0,0-.209-.084c-.085,0-.22.153-.22.153a.768.768,0,0,1,0,.3c-.033.168.034.253-.067.321s-.118.017-.136.151.067.067-.066.2-.064.12-.152.182a.383.383,0,0,1-.034.022c-.136.085-.188.066-.272.2a.786.786,0,0,0-.117.406c0,.116.372.541.372.541a.307.307,0,0,1,.051.013c.061.02.152.06.152.14,0,.117-.136.169,0,.252s.066.1.152.153a4.057,4.057,0,0,0,.548.132c.277.056.552.106.552.106l.187-.137h.322l.085-.288.253-.017.017-.271s-.035-.27.051-.27a1.042,1.042,0,0,0,.28-.141c.118-.073.228-.148.228-.148s.064.015.149.027a.7.7,0,0,0,.357-.008,2.544,2.544,0,0,0,.271-.338.7.7,0,0,1,0-.31.069.069,0,0,1,.062-.046,1.066,1.066,0,0,1,.559.117.807.807,0,0,0,.457.22,1.156,1.156,0,0,0,.33-.172l.043-.028c.038-.026.137-.1.247-.183l.007.012s.236.033.3.15a.76.76,0,0,1,.067.474c-.033.136.22.253.305.357s.491.643.629.812.405.473.405.473l.138.321-.29.2a2.505,2.505,0,0,1-.408-.05.193.193,0,0,0-.186.066,1.118,1.118,0,0,1-.219-.168c-.153-.138-.052.018-.239.118s.239.251.339.339a2.373,2.373,0,0,1,.3.321c.069.083.238-.033.238-.168a1.7,1.7,0,0,1,.019-.254h.3l.188-.219.151-.138.068-.188-.119-.339a1.431,1.431,0,0,1,.287-.067c.084,0,.17.253.17.253l.083.034a.752.752,0,0,0-.052-.288,2.115,2.115,0,0,0-.32-.287,2.326,2.326,0,0,1-.391-.189,3.56,3.56,0,0,1-.388-.609c-.1-.187-.031-.2-.051-.288s-.187-.189-.251-.305a.581.581,0,0,1-.052-.287s.152-.1.322-.2a.273.273,0,0,0,.092-.073c.067.07.245.271.245.4a1.355,1.355,0,0,0,.1.422c.032.1.236.187.507.237s.187.239.187.239a1.539,1.539,0,0,1,.288.507,4.987,4.987,0,0,1,.049.559c.02.254.138.288.221.523s.119.237.171.421c.022.084.041.17.071.255-.17.621-.348,1.249-.532,1.878a1.876,1.876,0,0,0-.271.681.745.745,0,0,1-.124.052h0l-.353-.084h0c-.18-.192-.591-.264-.809-.413s-.222-.468-.395-.616-.3-.074-.3-.074-.495-.1-.593-.222c-.054-.068-.142-.166-.212-.249l-.109-.122s.048-.048.109-.1a.661.661,0,0,1,.236-.149c.124-.024-.048-.272-.2-.52s.4-.321.37-.446-.26-.122-.409-.192l-.011-.005a1.056,1.056,0,0,0-.495,0l-.469-.1s-.148.052-.271.1a.2.2,0,0,1-.161-.019.626.626,0,0,1-.286-.279c-.068-.138-.206-.11-.349-.119a.41.41,0,0,1-.194-.055.316.316,0,0,0-.183-.055c-.108,0-.207.062-.337.08-.164.02-.378.073-.516.092a.576.576,0,0,1-.078.007,1.132,1.132,0,0,0-.445.2c-.172.1-.222-.272-.222-.272a.84.84,0,0,1-.149-.019,2.33,2.33,0,0,1-.445-.132c-.37-.149-.2-.37-.2-.37s-.07.056-.21.178c-.046.042-.1.088-.162.145-.247.222-.319.321-.543.3a.8.8,0,0,0-.495.149,2.789,2.789,0,0,0-.488.68,59.829,59.829,0,0,1-8.492-3.6c-.114-.062-.3-.162-.528-.293h0c-.026-.017-.055-.032-.084-.048s-.046-.028-.071-.041h0c-.369-.212-.825-.485-1.308-.795a18.094,18.094,0,0,1,1.892-5.247c-.012.022-.027.042-.037.063-3.241.049-5.337.655-5.655,1.841C2.8,20.981,11.92,25.819,23.9,29.031,25.272,29.407,26.6,29.733,27.9,30.023Zm-3.642-5.066c-.083.032-.083.215-.083.215a.292.292,0,0,0,.149.1.457.457,0,0,0,.205-.012c.041-.009.087-.021.143-.037.165-.049.066-.134.1-.248a1.576,1.576,0,0,1,.1-.382c.066-.115-.133-.2-.133-.2s-.153.213-.209.3l-.006.011A.8.8,0,0,1,24.261,24.957Zm.272-.885c.086-.02.285-.072.324-.178.049-.132.033-.065.084-.213s-.134.049-.134.049l-.215.134-.059.129-.04.086A.321.321,0,0,0,24.533,24.072Z" transform="translate(-111 -171.56)"/>
  </g>
</svg>
