<svg xmlns="http://www.w3.org/2000/svg" viewBox="0 0 83.843 83.843">
  <defs>
    <style>
      .cls-1 {
        fill: #fff;
      }
    </style>
  </defs>
  <g id="Group_21" data-name="Group 21" transform="translate(465 -1052)">
    <g id="Group_17" data-name="Group 17" transform="translate(-473 1043)">
      <path id="Path_12" data-name="Path 12" class="cls-1" d="M91.687,38.609a34.414,34.414,0,0,0-7.044,10.075,5.491,5.491,0,0,1-9.986-.013c-2.092-4.883-5.263-8.212-8.34-11.424-.769-.81-1.538-1.619-2.294-2.454-.04.013-.068.026-.108.038-3,.861-5.3,4.639-3.914,7.71.945,2.107,7.571,1.709,7,6.245-.472,3.714,4.628,4.69,6.437,4.511,1.808-.206,4.588,2.827,3.185,4.164s-4.021,1.388-3.617,4.832c.108,1,3.293.874,3.293,2.39s-1.646,3.264-.378,5.025a4.165,4.165,0,0,0,.85.912,35.062,35.062,0,0,1-23.157,8.623c-18.852,0-34.182-14.6-34.182-32.551A31.161,31.161,0,0,1,23.35,31.58a18.556,18.556,0,0,0,4.8,12.17c5.02,4.768,12.294,3.264,13.225,7.261s-4.993,4-4.6,7.042,8.137,3.868,6.41,6.682c-2.281,3.74,1.538,4.009.432,8.623-.594,2.519,3.225,3.007,4.642,1.092,1.08-1.465.864-3.264,3.036-5.461,2.658-2.7,8.826-3.136,8.137-7.595-1.174-7.4-8.731-8.559-12.024-10.294-3.738-1.953-2.82-6.644-3.63-8.88-1.134-3.174-4.98.887-7.031-.964-3.374-3.033.607-7.325,3.441-7.235C46.169,34.2,48,39.74,50.2,39.547c2.146-.18,3.536-3.033,3.914-4.549.8-3.3-1.349-1.825-2.213-3.547-1.161-2.3,4.075-4.5,6.1-6.194a2.627,2.627,0,0,0,.661-.733c.608-1.131-.189-1.992-1.538-2.776-2.7-1.555-7.624-2.789-7.854-5.217-.135-1.491,2.861-2.21,6.275-2.339.567.026,1.12.077,1.687.129A20.934,20.934,0,0,1,58.6,9.849a39.816,39.816,0,0,0-4.98-.309c-21.511,0-39.013,16.667-39.013,37.151s17.5,37.152,39.013,37.152S92.632,67.177,92.632,46.693A34.751,34.751,0,0,0,91.687,38.609ZM77.828.083A18.439,18.439,0,0,0,61.193,21.611c1.952,10.538,12.155,13.782,17.219,25.611a1.368,1.368,0,0,0,2.488.005c5.613-13.12,17.548-15.68,17.548-29.332C98.448,7.437,89.028-.925,77.828.083Zm1.83,27.261a9.7,9.7,0,0,1-9.924-9.45,9.935,9.935,0,0,1,19.847,0A9.7,9.7,0,0,1,79.657,27.345Z" transform="translate(-6.605 8.999)"/>
    </g>
  </g>
</svg>
